<svg width="60" height="60" viewBox="0 0 60 60" fill="none" xmlns="http://www.w3.org/2000/svg">
<g clip-path="url(#clip0_2_67)">
<circle cx="30" cy="30" r="30" fill="#A594F8"/>
<path d="M28.625 31.375H19.25C18.7188 31.375 18.2734 31.1953 17.9141 30.8359C17.5547 30.4766 17.375 30.0312 17.375 29.5C17.375 28.9688 17.5547 28.5234 17.9141 28.1641C18.2734 27.8047 18.7188 27.625 19.25 27.625H28.625V18.25C28.625 17.7188 28.8047 17.2734 29.1641 16.9141C29.5234 16.5547 29.9688 16.375 30.5 16.375C31.0312 16.375 31.4766 16.5547 31.8359 16.9141C32.1953 17.2734 32.375 17.7188 32.375 18.25V27.625H41.75C42.2812 27.625 42.7266 27.8047 43.0859 28.1641C43.4453 28.5234 43.625 28.9688 43.625 29.5C43.625 30.0312 43.4453 30.4766 43.0859 30.8359C42.7266 31.1953 42.2812 31.375 41.75 31.375H32.375V40.75C32.375 41.2812 32.1953 41.7266 31.8359 42.0859C31.4766 42.4453 31.0312 42.625 30.5 42.625C29.9688 42.625 29.5234 42.4453 29.1641 42.0859C28.8047 41.7266 28.625 41.2812 28.625 40.75V31.375Z" fill="#FFF8F1"/>
</g>
<defs>
<clipPath id="clip0_2_67">
<rect width="60" height="60" fill="white"/>
</clipPath>
</defs>
</svg>
