<svg width="40" height="40" viewBox="0 0 60 60" fill="none" xmlns="http://www.w3.org/2000/svg">
<g clip-path="url(#clip0_1_46)">
<circle cx="30" cy="30" r="30" fill="#6AA496"/>
<path d="M27.5083 35.775L43.0458 20.2375C43.4125 19.8708 43.8479 19.6875 44.3521 19.6875C44.8562 19.6875 45.2917 19.8708 45.6583 20.2375C46.025 20.6042 46.2083 21.0396 46.2083 21.5438C46.2083 22.0479 46.025 22.4833 45.6583 22.85L28.7917 39.7167C28.425 40.0833 27.9972 40.2667 27.5083 40.2667C27.0194 40.2667 26.5917 40.0833 26.225 39.7167L18.3417 31.8333C17.975 31.4667 17.7993 31.0313 17.8146 30.5271C17.8299 30.0229 18.0208 29.5875 18.3875 29.2208C18.7542 28.8542 19.1896 28.6708 19.6937 28.6708C20.1979 28.6708 20.6333 28.8542 21 29.2208L27.5083 35.775Z" fill="#FFF8F1"/>
</g>
<defs>
<clipPath id="clip0_1_46">
<rect width="60" height="60" fill="white"/>
</clipPath>
</defs>
</svg>
