<svg width="40" height="40" viewBox="0 0 60 60" fill="none" xmlns="http://www.w3.org/2000/svg">
<g clip-path="url(#clip0_1_42)">
<circle cx="30" cy="30" r="30" fill="#E96C6A"/>
<path d="M22.0833 44.25C21.2125 44.25 20.467 43.9399 19.8469 43.3198C19.2267 42.6997 18.9167 41.9542 18.9167 41.0833V20.5C18.4681 20.5 18.092 20.3483 17.7886 20.0448C17.4851 19.7413 17.3333 19.3653 17.3333 18.9167C17.3333 18.4681 17.4851 18.092 17.7886 17.7885C18.092 17.4851 18.4681 17.3333 18.9167 17.3333H25.25C25.25 16.8847 25.4017 16.5087 25.7052 16.2052C26.0087 15.9017 26.3847 15.75 26.8333 15.75H33.1667C33.6153 15.75 33.9913 15.9017 34.2948 16.2052C34.5983 16.5087 34.75 16.8847 34.75 17.3333H41.0833C41.532 17.3333 41.908 17.4851 42.2115 17.7885C42.5149 18.092 42.6667 18.4681 42.6667 18.9167C42.6667 19.3653 42.5149 19.7413 42.2115 20.0448C41.908 20.3483 41.532 20.5 41.0833 20.5V41.0833C41.0833 41.9542 40.7733 42.6997 40.1531 43.3198C39.533 43.9399 38.7875 44.25 37.9167 44.25H22.0833ZM37.9167 20.5H22.0833V41.0833H37.9167V20.5ZM26.8333 37.9167C27.282 37.9167 27.658 37.7649 27.9615 37.4615C28.2649 37.158 28.4167 36.7819 28.4167 36.3333V25.25C28.4167 24.8014 28.2649 24.4253 27.9615 24.1219C27.658 23.8184 27.282 23.6667 26.8333 23.6667C26.3847 23.6667 26.0087 23.8184 25.7052 24.1219C25.4017 24.4253 25.25 24.8014 25.25 25.25V36.3333C25.25 36.7819 25.4017 37.158 25.7052 37.4615C26.0087 37.7649 26.3847 37.9167 26.8333 37.9167ZM33.1667 37.9167C33.6153 37.9167 33.9913 37.7649 34.2948 37.4615C34.5983 37.158 34.75 36.7819 34.75 36.3333V25.25C34.75 24.8014 34.5983 24.4253 34.2948 24.1219C33.9913 23.8184 33.6153 23.6667 33.1667 23.6667C32.7181 23.6667 32.342 23.8184 32.0386 24.1219C31.7351 24.4253 31.5833 24.8014 31.5833 25.25V36.3333C31.5833 36.7819 31.7351 37.158 32.0386 37.4615C32.342 37.7649 32.7181 37.9167 33.1667 37.9167Z" fill="#FFF8F1"/>
</g>
<defs>
<clipPath id="clip0_1_42">
<rect width="60" height="60" fill="white"/>
</clipPath>
</defs>
</svg>
