<svg width="40" height="40" viewBox="0 0 60 60" fill="none" xmlns="http://www.w3.org/2000/svg">
<g clip-path="url(#clip0_2_76)">
<circle cx="30" cy="30" r="30" fill="#F07CA6"/>
<path d="M30.5 37.2083C30.9368 37.2083 31.303 37.0606 31.5984 36.7651C31.8939 36.4696 32.0417 36.1035 32.0417 35.6667V29.5C32.0417 29.0632 31.8939 28.697 31.5984 28.4016C31.303 28.1061 30.9368 27.9583 30.5 27.9583C30.0632 27.9583 29.6971 28.1061 29.4016 28.4016C29.1061 28.697 28.9583 29.0632 28.9583 29.5V35.6667C28.9583 36.1035 29.1061 36.4696 29.4016 36.7651C29.6971 37.0606 30.0632 37.2083 30.5 37.2083ZM30.5 24.875C30.9368 24.875 31.303 24.7273 31.5984 24.4318C31.8939 24.1363 32.0417 23.7701 32.0417 23.3333C32.0417 22.8965 31.8939 22.5304 31.5984 22.2349C31.303 21.9394 30.9368 21.7917 30.5 21.7917C30.0632 21.7917 29.6971 21.9394 29.4016 22.2349C29.1061 22.5304 28.9583 22.8965 28.9583 23.3333C28.9583 23.7701 29.1061 24.1363 29.4016 24.4318C29.6971 24.7273 30.0632 24.875 30.5 24.875ZM30.5 44.9167C28.3674 44.9167 26.3632 44.512 24.4875 43.7026C22.6118 42.8932 20.9802 41.7948 19.5927 40.4073C18.2052 39.0198 17.1068 37.3882 16.2974 35.5125C15.488 33.6368 15.0833 31.6326 15.0833 29.5C15.0833 27.3674 15.488 25.3632 16.2974 23.4875C17.1068 21.6118 18.2052 19.9802 19.5927 18.5927C20.9802 17.2052 22.6118 16.1068 24.4875 15.2974C26.3632 14.488 28.3674 14.0833 30.5 14.0833C32.6326 14.0833 34.6368 14.488 36.5125 15.2974C38.3882 16.1068 40.0198 17.2052 41.4073 18.5927C42.7948 19.9802 43.8932 21.6118 44.7026 23.4875C45.512 25.3632 45.9167 27.3674 45.9167 29.5C45.9167 31.6326 45.512 33.6368 44.7026 35.5125C43.8932 37.3882 42.7948 39.0198 41.4073 40.4073C40.0198 41.7948 38.3882 42.8932 36.5125 43.7026C34.6368 44.512 32.6326 44.9167 30.5 44.9167ZM30.5 41.8333C33.9431 41.8333 36.8594 40.6385 39.249 38.249C41.6386 35.8594 42.8333 32.9431 42.8333 29.5C42.8333 26.0569 41.6386 23.1406 39.249 20.751C36.8594 18.3615 33.9431 17.1667 30.5 17.1667C27.057 17.1667 24.1406 18.3615 21.7511 20.751C19.3615 23.1406 18.1667 26.0569 18.1667 29.5C18.1667 32.9431 19.3615 35.8594 21.7511 38.249C24.1406 40.6385 27.057 41.8333 30.5 41.8333Z" fill="#FFF8F1"/>
</g>
<defs>
<clipPath id="clip0_2_76">
<rect width="60" height="60" fill="white"/>
</clipPath>
</defs>
</svg>
