<?xml version="1.0" encoding="UTF-8"?>
<svg id="Capa_1" data-name="Capa 1" xmlns="http://www.w3.org/2000/svg" viewBox="0 0 125.74 36.22">
  <defs>
    <style>
      .cls-1 {
        fill: #fff8f2;
        stroke-width: 0px;
      }
    </style>
  </defs>
  <path class="cls-1" d="m107.77,33.13c-.68.01-1.26-.23-1.76-.71s-.74-1.08-.75-1.77.22-1.29.7-1.79,1.05-.76,1.73-.77,1.26.23,1.76.71.74,1.08.75,1.77-.22,1.29-.7,1.79-1.05.76-1.73.77Zm12.34-.2c-.68.01-1.26-.23-1.76-.71s-.74-1.08-.75-1.77.22-1.29.7-1.79,1.05-.76,1.73-.77,1.26.23,1.76.71.74,1.08.75,1.77-.22,1.29-.7,1.79-1.05.76-1.73.77Zm-13.73-19.95l3.07,6.25,8.64-.14,3.29-6.36-15,.25Zm-1.21-2.5l18.21-.3c.47,0,.84.2,1.09.63s.27.86.05,1.31l-4.25,8.14c-.22.42-.52.75-.89.99s-.79.36-1.24.37l-9.2.15-1.32,2.54,13.58-.23c.35,0,.64.11.89.35s.36.54.37.89-.11.66-.34.9-.52.37-.87.38l-13.58.23c-.93.02-1.63-.39-2.12-1.21s-.52-1.65-.1-2.47l1.62-3.12-4.6-9.51-1.23.02c-.35,0-.64-.11-.89-.35s-.36-.54-.37-.89.11-.66.34-.9.52-.37.87-.38l2.01-.03c.23,0,.44.06.65.18s.37.3.47.53l.86,1.78Zm4.28,8.76l8.64-.14-8.64.14Z"/>
  <g>
    <path class="cls-1" d="m5.2,1.45h7.66v15.31c0,1.2.19,1.99.58,2.39s1.14.59,2.27.59h.4v7.48h-2.04c-2.79,0-4.97-.81-6.53-2.44-1.56-1.63-2.34-3.89-2.34-6.79V1.45Z"/>
    <path class="cls-1" d="m25.23,8.4v18.82h-7.06V8.4h7.06ZM21.71,0c.96,0,1.78.34,2.48,1.01.7.67,1.05,1.47,1.05,2.39,0,.98-.33,1.79-.99,2.42-.66.63-1.51.94-2.54.94s-1.88-.31-2.54-.94c-.66-.63-.99-1.43-.99-2.42,0-.92.35-1.71,1.05-2.39C19.93.33,20.76,0,21.71,0Z"/>
    <path class="cls-1" d="m41.18,8.66v7.44c-.99,0-1.68.19-2.05.56-.37.37-.61,1.1-.71,2.2-.33,3.64-1.74,6.2-4.23,7.7-1.32.78-3.2,1.17-5.62,1.17h-.98v-7.48h.32c1.13,0,1.94-.24,2.43-.71.48-.47.76-1.3.84-2.48.1-1.93.28-3.28.54-4.06.26-.78.78-1.55,1.58-2.32,1.38-1.35,3.3-2.02,5.76-2.02h2.13Z"/>
    <path class="cls-1" d="m49.77,1.45v7.21h3.17v7.46h-3.17c0,1.5.24,2.53.71,3.1.47.57,1.34.85,2.6.85v7.42c-.36.01-.64.02-.81.02-1.6,0-3.11-.37-4.52-1.11-1.42-.74-2.55-1.75-3.41-3.02-1.08-1.62-1.62-3.78-1.62-6.46V1.45h7.06Z"/>
    <path class="cls-1" d="m63.47,8.4v18.82h-7.06V8.4h7.06ZM59.96,0c.96,0,1.78.34,2.48,1.01.7.67,1.05,1.47,1.05,2.39,0,.98-.33,1.79-.99,2.42-.66.63-1.51.94-2.54.94s-1.88-.31-2.54-.94c-.66-.63-.99-1.43-.99-2.42,0-.92.35-1.71,1.05-2.39C58.18.33,59,0,59.96,0Z"/>
    <path class="cls-1" d="m77.84,12.57v7.4h-3.15v7.25h-7.06v-15.99c0-1.8.31-3.33.92-4.61.78-1.62,1.97-2.95,3.56-3.97,1.59-1.03,3.25-1.54,4.97-1.54l.75.02v7.4c-.16-.01-.28-.02-.36-.02-.89,0-1.58.3-2.07.89s-.73,1.43-.73,2.53v.64h3.15Z"/>
    <path class="cls-1" d="m83.37,35.47v-6.14c.96.4,1.79.6,2.51.6,2.29,0,3.78-1.29,4.46-3.87-1.23.73-2.44,1.09-3.62,1.09-1.75,0-3.19-.65-4.32-1.95-1.13-1.3-1.7-2.96-1.7-4.97v-11.84h7.06v10.12c0,1.12.47,1.68,1.4,1.68s1.34-.62,1.34-1.85v-9.95h7.06v16.8c0,3.13-.88,5.66-2.64,7.59-2.1,2.29-4.64,3.44-7.63,3.44-1.31,0-2.61-.25-3.91-.75Z"/>
  </g>
</svg>